<?xml version="1.0" encoding="utf-8"?>
<!-- Generator: Adobe Illustrator 17.0.2, SVG Export Plug-In . SVG Version: 6.00 Build 0)  -->
<!DOCTYPE svg PUBLIC "-//W3C//DTD SVG 1.1//EN" "http://www.w3.org/Graphics/SVG/1.1/DTD/svg11.dtd">
<svg version="1.1" id="Layer_1" xmlns="http://www.w3.org/2000/svg" xmlns:xlink="http://www.w3.org/1999/xlink" x="0px" y="0px"
	 width="141.333px" height="273.326px" viewBox="0 0 141.333 273.326" enable-background="new 0 0 141.333 273.326"
	 xml:space="preserve">
<rect x="0" width="141.333" height="273.326"/>
<g>
	<rect x="61.132" y="30.668" fill="none" width="59.086" height="37.27"/>
	<text transform="matrix(1 0 0 1 61.422 65.2145)" fill="#FFFFFF" font-family="'Superclarendon-Regular'" font-size="44.8672">35</text>
	<rect x="21.115" y="33.702" fill="none" width="39.18" height="35.499"/>
	<text transform="matrix(1 0 0 1 26.8791 65.8167)" fill="#FFFFFF" font-family="'Superclarendon-Regular'" font-size="41.7076">J</text>
</g>
<g>
	<rect x="9.341" y="214.968" fill="none" width="122.634" height="9.479"/>
	<text transform="matrix(1 0 0 1 25.4204 220.8062)" fill="#FFFFFF" font-family="'Superclarendon-Regular'" font-size="7.5832">St. Hedwig’s Church</text>
	<rect x="9.277" y="228.238" fill="none" width="122.778" height="9.479"/>
	
		<text transform="matrix(2.2 0 0 1.25 25.6607 233.5903)" fill="#FFFFFF" font-family="'Superclarendon-Regular'" font-size="6.9513">Bucktown</text>
	<rect x="9.277" y="239.297" fill="none" width="122.778" height="9.479"/>
	
		<text transform="matrix(1 0 0 1 25.5049 244.6495)" fill="#FFFFFF" font-family="'Superclarendon-Regular'" font-size="6.9513" letter-spacing="8">CHICAGO</text>
</g>
<g>
	<path fill="#F2F2F2" d="M85.441,156.483c-8.499-8.499-22.215-8.611-30.577-0.249s-8.249,22.078,0.249,30.577
		c8.499,8.499,22.215,8.611,30.577,0.249S93.94,164.982,85.441,156.483z M89.347,175.922c-1.699,0.038-5.37,0.025-7.723-0.69
		c-3.194-0.97-7.572-3.313-7.572-3.313s3.377-2.783,6.794-4.327c2.13-0.963,5.912-2.049,7.634-2.523
		C89.791,168.562,90.084,172.331,89.347,175.922z M75.105,152.877c-0.177,2.444-0.724,5.567-1.732,9.395
		c-0.215,0.817-2.658,6.561-2.658,6.561s-2.961-4.766-3.895-6.874c-0.751-1.694-1.701-3.658-2.057-9.092
		C68.13,151.942,71.709,151.953,75.105,152.877z M51.363,166.711c2.006,0.238,7.123,0.878,9.685,1.49c3.523,0.84,7,3.412,7,3.412
		s-2.565,2.787-7.535,4.795c-3.342,1.35-6.762,1.834-8.374,1.998C50.688,174.649,50.431,170.559,51.363,166.711z M65.776,190.498
		c0.422-2.221,1.41-7.273,1.982-9.019c0.866-2.64,3.502-6.767,3.502-6.767s2.607,4.509,3.502,7.146
		c0.699,2.061,1.576,6.433,1.933,8.281C73.177,191.297,69.384,191.415,65.776,190.498z"/>
	<path fill="#F2F2F2" d="M89.239,153.041c-10.241-10.241-26.903-10.241-37.144,0c-10.241,10.241-10.241,26.903,0,37.144
		c10.24,10.24,26.903,10.24,37.143,0C99.479,179.943,99.479,163.281,89.239,153.041z M53.602,188.678
		c-9.41-9.41-9.41-24.721,0-34.131c9.41-9.41,24.721-9.41,34.131,0c9.41,9.41,9.409,24.72,0,34.13
		C78.322,198.087,63.011,198.087,53.602,188.678z"/>
</g>
<rect x="0" y="79.327" fill="none" width="141.333" height="58.677"/>
<text transform="matrix(1 0 0 1 27.0072 87.0271)"><tspan x="0" y="0" fill="#FFFFFF" font-family="'Superclarendon-Regular'" font-size="10">Young Adult &amp;</tspan><tspan x="24.669" y="14" fill="#FFFFFF" font-family="'Superclarendon-Regular'" font-size="10">Young </tspan><tspan x="4.69" y="28" fill="#FFFFFF" font-family="'Superclarendon-Regular'" font-size="10">Professionals </tspan><tspan x="18.725" y="42" fill="#FFFFFF" font-family="'Superclarendon-Regular'" font-size="10">Ministry</tspan></text>
</svg>
